<svg width="97" height="92" viewBox="0 0 97 92" fill="none" xmlns="http://www.w3.org/2000/svg">
<g opacity="0.6">
<g clip-path="url(#clip0_31_1145)">
<path d="M26.6391 42.7579C32.0848 52.1925 47.0966 59.8397 60.1688 59.8383C73.2409 59.837 79.4234 52.1876 73.9776 42.753C68.5318 33.3184 53.5201 25.6713 40.4479 25.6726C27.3757 25.674 21.1933 33.3233 26.6391 42.7579Z" fill="#627EEA"/>
</g>
</g>
<g opacity="0.3">
<g clip-path="url(#clip1_31_1145)">
<path d="M23.9843 47.3558C29.43 56.7904 44.4418 64.4376 57.514 64.4362C70.5862 64.4349 76.7686 56.7855 71.3228 47.3509C65.8771 37.9163 50.8653 30.2692 37.7931 30.2705C24.7209 30.2719 18.5385 37.9212 23.9843 47.3558Z" fill="#627EEA"/>
</g>
</g>
<g opacity="0.05">
<g clip-path="url(#clip2_31_1145)">
<path d="M20.0028 54.2523C25.4486 63.6869 40.4603 71.3341 53.5325 71.3327C66.6047 71.3314 72.7871 63.682 67.3414 54.2474C61.8956 44.8128 46.8839 37.1657 33.8117 37.167C20.7395 37.1684 14.5571 44.8177 20.0028 54.2523Z" fill="#627EEA"/>
</g>
</g>
<g clip-path="url(#clip3_31_1145)">
<path d="M29.0761 38.537C34.5218 47.9716 49.5336 55.6187 62.6058 55.6174C75.678 55.616 81.8604 47.9667 76.4146 38.5321C70.9689 29.0975 55.9571 21.4503 42.8849 21.4517C29.8127 21.453 23.6303 29.1024 29.0761 38.537Z" fill="#627EEA"/>
<path d="M70.8042 39.0642L57.6825 39.0656L57.347 47.0705L70.8042 39.0642Z" fill="white" fill-opacity="0.602"/>
<path d="M70.8044 39.0643L48.1062 31.0607L57.6828 39.0657L70.8044 39.0643Z" fill="white"/>
<path d="M44.2241 39.0671L35.3081 39.068L55.2854 47.0761L44.2241 39.0671Z" fill="white" fill-opacity="0.602"/>
<path d="M35.3079 39.0681L44.2253 39.0672L46.041 31.061L35.3079 39.0681Z" fill="white"/>
<path d="M46.2874 39.0669L57.3471 47.0706L57.6797 39.0657L46.2874 39.0669Z" fill="white" fill-opacity="0.2"/>
<path d="M48.1063 31.0608L46.2876 39.0669L57.6799 39.0658L48.1063 31.0608Z" fill="white" fill-opacity="0.602"/>
</g>
<defs>
<clipPath id="clip0_31_1145">
<rect width="39.4488" height="47.3386" fill="white" transform="matrix(0.49991 0.866077 -1 0.000103799 64.1172 25.6702)"/>
</clipPath>
<clipPath id="clip1_31_1145">
<rect width="39.4488" height="47.3386" fill="white" transform="matrix(0.49991 0.866077 -1 0.000103799 61.4624 30.2681)"/>
</clipPath>
<clipPath id="clip2_31_1145">
<rect width="39.4488" height="47.3386" fill="white" transform="matrix(0.49991 0.866077 -1 0.000103799 57.481 37.1646)"/>
</clipPath>
<clipPath id="clip3_31_1145">
<rect width="39.4488" height="47.3386" fill="white" transform="matrix(0.49991 0.866077 -1 0.000103799 66.5542 21.4492)"/>
</clipPath>
</defs>
</svg>
