<svg width="6" height="13" viewBox="0 0 6 13" fill="none" xmlns="http://www.w3.org/2000/svg">
<path fill-rule="evenodd" clip-rule="evenodd" d="M4.80021 13C5.11842 13 5.4236 12.8755 5.64864 12.654C5.87362 12.4323 6 12.1318 6 11.8184C6 11.505 5.87362 11.2045 5.64864 10.9828L2.4001 7.78361V1.18184C2.4001 0.868397 2.27367 0.567792 2.04861 0.346153C1.82356 0.124515 1.51832 0 1.20005 0C0.881777 0 0.57654 0.124515 0.351487 0.346153C0.126434 0.567792 0 0.868397 0 1.18184V8.27289C6.77204e-05 8.58631 0.126546 8.88686 0.351615 9.10845L3.95177 12.654C4.17681 12.8755 4.48199 13 4.80021 13Z" fill="#F3F5FC"/>
</svg>
