<svg width="27" height="31" viewBox="0 0 27 31" fill="none" xmlns="http://www.w3.org/2000/svg">
<path fill-rule="evenodd" clip-rule="evenodd" d="M0.532853 0.894719C0.195088 1.25784 0 1.81269 0 2.53893V28.2973C0 29.0236 0.195088 29.5784 0.5445 29.927L0.634765 30.0055L15.1004 15.5736V15.2511L0.623118 0.816284L0.532853 0.894719Z" fill="url(#paint0_linear_214_2215)"/>
<path fill-rule="evenodd" clip-rule="evenodd" d="M19.9137 20.3988L15.0889 15.5852V15.2482L19.9137 10.4347L20.0185 10.4986L25.7255 13.7347C27.359 14.6527 27.359 16.1691 25.7255 17.0987L20.0185 20.3348L19.9137 20.3988Z" fill="url(#paint1_linear_214_2215)"/>
<path fill-rule="evenodd" clip-rule="evenodd" d="M20.0182 20.3349L15.0886 15.4167L0.532715 29.9387C1.06557 30.5081 1.95948 30.572 2.95822 30.0171L20.0182 20.3349Z" fill="url(#paint2_linear_214_2215)"/>
<path fill-rule="evenodd" clip-rule="evenodd" d="M20.0182 10.4986L2.95822 0.830873C1.95948 0.261499 1.06266 0.339933 0.532715 0.909308L15.0886 15.4167L20.0182 10.4986Z" fill="url(#paint3_linear_214_2215)"/>
<path opacity="0.2" fill-rule="evenodd" clip-rule="evenodd" d="M19.9135 20.2302L2.96993 29.8341C2.02361 30.3773 1.1792 30.3395 0.634698 29.8457L0.544434 29.9357L0.634698 30.0142C1.1792 30.5051 2.02361 30.5458 2.96993 30.0026L20.03 20.3348L19.9135 20.2302Z" fill="black"/>
<path opacity="0.12" fill-rule="evenodd" clip-rule="evenodd" d="M25.7254 16.9302L19.8989 20.2303L20.0037 20.3349L25.7108 17.0987C26.529 16.6339 26.9308 16.0239 26.9308 15.4167C26.8813 15.9745 26.465 16.5032 25.7254 16.9302Z" fill="black"/>
<path opacity="0.25" fill-rule="evenodd" clip-rule="evenodd" d="M2.95835 0.99931L25.7254 13.9032C26.465 14.3186 26.8814 14.8618 26.9455 15.4167C26.9455 14.8096 26.5437 14.1995 25.7254 13.7347L2.95835 0.830821C1.32485 -0.101676 0 0.676858 0 2.53895V2.70743C0 0.842441 1.32485 0.0784329 2.95835 0.99931Z" fill="white"/>
<defs>
<linearGradient id="paint0_linear_214_2215" x1="13.8029" y1="2.26103" x2="-9.36142" y2="8.44761" gradientUnits="userSpaceOnUse">
<stop stop-color="#00A0FF"/>
<stop offset="0.00657" stop-color="#00A1FF"/>
<stop offset="0.2601" stop-color="#00BEFF"/>
<stop offset="0.5122" stop-color="#00D2FF"/>
<stop offset="0.7604" stop-color="#00DFFF"/>
<stop offset="1" stop-color="#00E3FF"/>
</linearGradient>
<linearGradient id="paint1_linear_214_2215" x1="27.8558" y1="15.4168" x2="-0.39692" y2="15.4168" gradientUnits="userSpaceOnUse">
<stop stop-color="#FFE000"/>
<stop offset="0.4087" stop-color="#FFBD00"/>
<stop offset="0.7754" stop-color="#FFA500"/>
<stop offset="1" stop-color="#FF9C00"/>
</linearGradient>
<linearGradient id="paint2_linear_214_2215" x1="17.3377" y1="18.0929" x2="-1.20009" y2="49.3665" gradientUnits="userSpaceOnUse">
<stop stop-color="#FF3A44"/>
<stop offset="1" stop-color="#C31162"/>
</linearGradient>
<linearGradient id="paint3_linear_214_2215" x1="-3.13262" y1="-7.67287" x2="5.13782" y2="6.29438" gradientUnits="userSpaceOnUse">
<stop stop-color="#32A071"/>
<stop offset="0.0685" stop-color="#2DA771"/>
<stop offset="0.4762" stop-color="#15CF74"/>
<stop offset="0.8009" stop-color="#06E775"/>
<stop offset="1" stop-color="#00F076"/>
</linearGradient>
</defs>
</svg>
