<svg width="130" height="29" viewBox="0 0 130 29" fill="none" xmlns="http://www.w3.org/2000/svg">
<path fill-rule="evenodd" clip-rule="evenodd" d="M6.18265 9.96264C6.17474 10.0598 6.16703 10.1571 6.16084 10.2544C6.1587 10.2881 6.15761 10.3221 6.15761 10.3563V18.8438C6.15761 19.717 6.86545 20.4248 7.73862 20.4248H10.6636C12.3134 20.4248 13.1396 22.4194 11.973 23.5859L9.2925 26.2664C8.76354 26.7954 7.96229 26.9644 7.29967 26.6172C2.96053 24.3437 0 19.7968 0 14.5585C0 7.04463 6.09116 0.953461 13.605 0.953461C13.9828 0.953461 14.1544 1.40345 13.8873 1.67059L6.68908 8.86879C6.38394 9.17393 6.21513 9.56378 6.18265 9.96264ZM16.1997 8.77526C14.5499 8.77526 13.7237 6.78067 14.8903 5.61414L17.7439 2.76055C18.2657 2.23872 19.0533 2.06634 19.7125 2.39807C24.1592 4.63581 27.21 9.24086 27.21 14.5585C27.21 22.0723 21.1188 28.1635 13.605 28.1635C13.1249 28.1635 12.9123 27.5932 13.2517 27.2538L20.4109 20.0946C20.5042 20.0013 20.5848 19.9001 20.6526 19.7931C20.8514 19.5287 20.9692 19.2 20.9692 18.8438V16.2822H15.3285C14.3626 16.2822 13.5796 15.4992 13.5796 14.5333C13.5796 13.5675 14.3626 12.7845 15.3285 12.7845H20.9692V10.3563C20.9692 9.4831 20.2613 8.77526 19.3882 8.77526H16.1997ZM16.6658 14.5333C16.6658 15.1015 16.2052 15.5621 15.6371 15.5621C15.0689 15.5621 14.6083 15.1015 14.6083 14.5333C14.6083 13.9652 15.0689 13.5046 15.6371 13.5046C16.2052 13.5046 16.6658 13.9652 16.6658 14.5333Z" fill="url(#paint0_linear_222_15351)"/>
<path d="M38.4885 7.7543C38.4885 7.42522 38.7552 7.15846 39.0843 7.15846H45.1086C45.4377 7.15846 45.7044 7.42522 45.7044 7.7543V17.6603C45.7044 19.3211 45.2033 20.5381 44.2011 21.3112C43.1989 22.0844 41.9103 22.4709 40.3354 22.4709C39.0245 22.4709 37.8463 22.2633 36.8008 21.848C36.5838 21.7618 36.4482 21.548 36.4482 21.3145V19.7552C36.4482 19.2895 36.9677 18.9928 37.4055 19.1516C38.0589 19.3887 38.7778 19.5072 39.5623 19.5072C41.5094 19.5072 42.483 18.7699 42.483 17.2952V10.6536C42.483 10.3245 42.2162 10.0577 41.8872 10.0577H39.0843C38.7552 10.0577 38.4885 9.79097 38.4885 9.46189V7.7543Z" fill="white"/>
<path d="M46.9051 17.0375C46.9051 16.1068 47.0697 15.2836 47.399 14.5677C47.7283 13.8375 48.1578 13.2648 48.6876 12.8496C49.2317 12.4344 49.7972 12.1194 50.3842 11.9047C50.9855 11.6899 51.594 11.5825 52.2097 11.5825C53.2405 11.5825 54.1282 11.7758 54.8727 12.1624C55.6315 12.549 56.1899 13.0501 56.5478 13.6657C56.9058 14.267 57.1492 14.9543 57.278 15.7274C57.3936 16.3402 57.3926 16.9529 57.2748 17.5656C57.2245 17.8274 56.9866 18.0039 56.72 18.0039H50.6529C50.2722 18.0039 49.9845 18.364 50.1742 18.694C50.3938 19.0759 50.7215 19.3828 51.1573 19.6146C51.8303 19.9582 52.6249 20.13 53.5412 20.13C54.34 20.13 55.0924 20.0265 55.7983 19.8194C56.211 19.6983 56.6552 19.9897 56.6552 20.4198V21.453C56.6552 21.6925 56.5127 21.9109 56.2869 21.9906C55.3393 22.3251 54.2021 22.4924 52.8754 22.4924C51.1573 22.4924 49.7328 22.0128 48.6017 21.0535C47.4706 20.0942 46.9051 18.7556 46.9051 17.0375ZM53.9738 16.071C54.2684 16.071 54.5296 15.8517 54.4836 15.5607C54.4345 15.25 54.2993 14.9333 54.0781 14.6107C53.7345 14.1096 53.1475 13.859 52.3171 13.859C51.6585 13.859 51.0929 14.0594 50.6204 14.4603C50.296 14.7258 50.0795 15.0622 49.9711 15.4695C49.8853 15.7922 50.1647 16.071 50.4986 16.071H53.9738Z" fill="white"/>
<path d="M59.2512 9.3467C59.2512 9.07101 59.4403 8.83132 59.7084 8.7672L61.4804 8.34346C61.855 8.25389 62.2149 8.53784 62.2149 8.92296V11.2874C62.2149 11.6164 62.4816 11.8832 62.8107 11.8832H64.8834C65.2125 11.8832 65.4792 12.15 65.4792 12.479V13.8001C65.4792 14.1291 65.2125 14.3959 64.8834 14.3959H62.8107C62.4816 14.3959 62.2149 14.6627 62.2149 14.9917V18.4334C62.2149 19.4643 62.7661 19.9797 63.8685 19.9797C64.223 19.9797 64.5671 19.9465 64.9008 19.8802C65.3122 19.7984 65.7369 20.0888 65.7369 20.5082V21.6187C65.7369 21.8719 65.5775 22.0996 65.3343 22.17C64.5911 22.3849 63.8018 22.4924 62.9665 22.4924C61.8784 22.4924 60.9836 22.2132 60.282 21.6548C59.5948 21.0964 59.2512 20.2159 59.2512 19.0133V14.9917C59.2512 14.6627 58.9844 14.3959 58.6553 14.3959H58.1074C57.7784 14.3959 57.5116 14.1291 57.5116 13.8001V12.479C57.5116 12.15 57.7784 11.8832 58.1074 11.8832H58.6553C58.9844 11.8832 59.2512 11.6164 59.2512 11.2874V9.3467Z" fill="white"/>
<path d="M87.7046 7.60287C87.7735 7.34101 88.0102 7.15846 88.2809 7.15846H90.4931C90.8942 7.15846 91.1807 7.54673 91.0625 7.92998L86.7914 21.7716C86.7143 22.0214 86.4834 22.1917 86.222 22.1917H83.6081C83.3432 22.1917 83.1101 22.0169 83.036 21.7626L80.748 13.9107C80.5812 13.3385 79.7706 13.3385 79.6039 13.9107L77.3158 21.7626C77.2417 22.0169 77.0086 22.1917 76.7438 22.1917H74.1298C73.8684 22.1917 73.6376 22.0214 73.5605 21.7716L69.2894 7.92998C69.1711 7.54673 69.4576 7.15846 69.8587 7.15846H72.0709C72.3417 7.15846 72.5784 7.34101 72.6472 7.60287L74.9631 16.4166C75.1171 17.0028 75.946 17.0115 76.1123 16.4288L78.6351 7.59075C78.7081 7.33488 78.942 7.15846 79.2081 7.15846H81.1438C81.4099 7.15846 81.6437 7.33488 81.7167 7.59075L84.2395 16.4288C84.4058 17.0115 85.2347 17.0028 85.3887 16.4166L87.7046 7.60287Z" fill="white"/>
<path d="M100.104 19.5287C100.104 19.9869 100.348 20.2159 100.834 20.2159V20.2159C101.114 20.2159 101.393 20.4183 101.393 20.6974V21.6689C101.393 21.9185 101.238 22.1452 100.998 22.212C100.582 22.3273 100.163 22.385 99.7391 22.385C98.9497 22.385 98.3335 22.1815 97.8908 21.7745C97.6207 21.5263 97.2021 21.4334 96.89 21.6262C95.955 22.2036 94.9074 22.4924 93.7473 22.4924C92.7308 22.4924 91.8717 22.2132 91.1702 21.6548C90.4829 21.0821 90.1393 20.309 90.1393 19.3354C90.1393 18.5193 90.3827 17.8392 90.8695 17.2952C91.3563 16.7511 91.9218 16.386 92.5661 16.1999C93.2104 15.9995 93.912 15.8992 94.6708 15.8992C95.3886 15.8992 96.0858 15.9664 96.7623 16.1009C96.9451 16.1372 97.1191 15.9997 97.1191 15.8133V15.8133C97.1191 15.2836 96.9115 14.8612 96.4962 14.5462C96.081 14.2313 95.4797 14.0738 94.6923 14.0738C93.7951 14.0738 92.854 14.2319 91.869 14.5481C91.4676 14.677 91.0413 14.3884 91.0413 13.9668V12.6992C91.0413 12.4428 91.2051 12.2139 91.4506 12.1397C92.6805 11.7683 93.8756 11.5825 95.0359 11.5825C98.4148 11.5825 100.104 13.136 100.104 16.2429V19.5287ZM95.358 17.6817C94.7424 17.6817 94.2269 17.7963 93.8117 18.0254C93.3965 18.2544 93.1889 18.6124 93.1889 19.0992C93.1889 19.4714 93.3393 19.7792 93.6399 20.0226C93.9549 20.2517 94.3415 20.3663 94.7996 20.3663C95.6047 20.3663 96.3071 20.1438 96.9069 19.699C97.0457 19.5961 97.1191 19.4294 97.1191 19.2566V18.3881C97.1191 18.1125 96.9302 17.8706 96.6595 17.8186C96.1842 17.7274 95.7504 17.6817 95.358 17.6817Z" fill="white"/>
<path d="M102.095 7.11001C102.095 6.78094 102.362 6.51418 102.691 6.51418H104.484C104.813 6.51418 105.08 6.78094 105.08 7.11001V21.5959C105.08 21.925 104.813 22.1917 104.484 22.1917H102.691C102.362 22.1917 102.095 21.925 102.095 21.5959V7.11001Z" fill="white"/>
<path d="M106.943 7.11001C106.943 6.78094 107.21 6.51418 107.539 6.51418H109.332C109.661 6.51418 109.928 6.78094 109.928 7.11001V21.5959C109.928 21.925 109.661 22.1917 109.332 22.1917H107.539C107.21 22.1917 106.943 21.925 106.943 21.5959V7.11001Z" fill="white"/>
<path d="M111.168 17.0375C111.168 16.1068 111.333 15.2836 111.662 14.5677C111.991 13.8375 112.421 13.2648 112.951 12.8496C113.495 12.4344 114.06 12.1194 114.647 11.9047C115.249 11.6899 115.857 11.5825 116.473 11.5825C117.504 11.5825 118.391 11.7758 119.136 12.1624C119.895 12.549 120.453 13.0501 120.811 13.6657C121.169 14.267 121.412 14.9543 121.541 15.7274C121.657 16.3402 121.656 16.9529 121.538 17.5656C121.488 17.8274 121.25 18.0039 120.983 18.0039H114.916C114.535 18.0039 114.247 18.364 114.437 18.694C114.657 19.0759 114.985 19.3828 115.42 19.6146C116.093 19.9582 116.888 20.13 117.804 20.13C118.603 20.13 119.355 20.0265 120.061 19.8194C120.474 19.6983 120.918 19.9897 120.918 20.4198V21.453C120.918 21.6925 120.776 21.9109 120.55 21.9906C119.602 22.3251 118.465 22.4924 117.138 22.4924C115.42 22.4924 113.996 22.0128 112.865 21.0535C111.734 20.0942 111.168 18.7556 111.168 17.0375ZM118.237 16.071C118.531 16.071 118.793 15.8517 118.747 15.5607C118.698 15.25 118.562 14.9333 118.341 14.6107C117.998 14.1096 117.411 13.859 116.58 13.859C115.921 13.859 115.356 14.0594 114.883 14.4603C114.559 14.7258 114.343 15.0622 114.234 15.4695C114.148 15.7922 114.428 16.071 114.762 16.071H118.237Z" fill="white"/>
<path d="M123.514 9.3467C123.514 9.07101 123.703 8.83132 123.971 8.7672L125.743 8.34346C126.118 8.25389 126.478 8.53784 126.478 8.92296V11.2874C126.478 11.6164 126.745 11.8832 127.074 11.8832H129.146C129.475 11.8832 129.742 12.15 129.742 12.479V13.8001C129.742 14.1291 129.475 14.3959 129.146 14.3959H127.074C126.745 14.3959 126.478 14.6627 126.478 14.9917V18.4334C126.478 19.4643 127.029 19.9797 128.132 19.9797C128.486 19.9797 128.83 19.9465 129.164 19.8802C129.575 19.7984 130 20.0888 130 20.5082V21.6187C130 21.8719 129.841 22.0996 129.597 22.17C128.854 22.3849 128.065 22.4924 127.23 22.4924C126.141 22.4924 125.247 22.2132 124.545 21.6548C123.858 21.0964 123.514 20.2159 123.514 19.0133V14.9917C123.514 14.6627 123.247 14.3959 122.918 14.3959H122.37C122.041 14.3959 121.775 14.1291 121.775 13.8001V12.479C121.775 12.15 122.041 11.8832 122.37 11.8832H122.918C123.247 11.8832 123.514 11.6164 123.514 11.2874V9.3467Z" fill="white"/>
<defs>
<linearGradient id="paint0_linear_222_15351" x1="20.2585" y1="1.44999" x2="1.39029" y2="20.3182" gradientUnits="userSpaceOnUse">
<stop stop-color="#F67052"/>
<stop offset="1" stop-color="#7167E1"/>
</linearGradient>
</defs>
</svg>
