<svg width="120" height="28" viewBox="0 0 120 28" fill="none" xmlns="http://www.w3.org/2000/svg">
<path d="M51.5974 9.38537H49.2152C49.1236 8.87636 48.9531 8.42843 48.7037 8.04158C48.4542 7.65474 48.1488 7.32643 47.7874 7.05665C47.426 6.78688 47.0214 6.58327 46.5734 6.44584C46.1306 6.30841 45.6598 6.23969 45.1609 6.23969C44.26 6.23969 43.4532 6.4662 42.7406 6.91922C42.0331 7.37224 41.4732 8.0365 41.0609 8.91199C40.6537 9.78749 40.4501 10.8564 40.4501 12.1187C40.4501 13.3913 40.6537 14.4653 41.0609 15.3408C41.4732 16.2163 42.0356 16.878 42.7482 17.3259C43.4609 17.7738 44.2625 17.9978 45.1533 17.9978C45.6471 17.9978 46.1153 17.9316 46.5582 17.7993C47.0061 17.6619 47.4108 17.4608 47.7722 17.1961C48.1336 16.9314 48.439 16.6082 48.6884 16.2265C48.9429 15.8396 49.1185 15.3968 49.2152 14.8979L51.5974 14.9056C51.4701 15.6742 51.2232 16.3817 50.8568 17.0281C50.4954 17.6695 50.0296 18.2243 49.4595 18.6926C48.8945 19.1558 48.2481 19.5147 47.5202 19.7692C46.7923 20.0237 45.9983 20.1509 45.138 20.1509C43.7841 20.1509 42.5777 19.8302 41.519 19.1889C40.4602 18.5424 39.6255 17.6186 39.0147 16.4173C38.4089 15.2161 38.1061 13.7832 38.1061 12.1187C38.1061 10.4492 38.4115 9.01634 39.0223 7.82017C39.6331 6.6189 40.4679 5.6976 41.5266 5.05624C42.5854 4.4098 43.7892 4.08658 45.138 4.08658C45.9677 4.08658 46.7414 4.2062 47.4591 4.44543C48.1819 4.67958 48.8309 5.0257 49.4061 5.48381C49.9813 5.93683 50.4572 6.49165 50.8339 7.14827C51.2105 7.79981 51.465 8.5455 51.5974 9.38537ZM60.3945 11.1262V13.1113H53.4618V11.1262H60.3945ZM65.0477 19.9371L60.7109 4.30037H63.1923L66.2387 16.4097H66.3838L69.5524 4.30037H72.0109L75.1795 16.4173H75.3246L78.3633 4.30037H80.8524L76.508 19.9371H74.1335L70.8427 8.22483H70.7206L67.4298 19.9371H65.0477ZM84.3259 20.1967C83.5828 20.1967 82.9109 20.0593 82.3103 19.7844C81.7096 19.5045 81.2337 19.0998 80.8825 18.5704C80.5364 18.0411 80.3633 17.3921 80.3633 16.6235C80.3633 15.9618 80.4906 15.4171 80.7451 14.9896C80.9996 14.562 81.3431 14.2235 81.7758 13.9741C82.2085 13.7247 82.692 13.5363 83.2265 13.4091C83.7609 13.2818 84.3056 13.1851 84.8604 13.119C85.5628 13.0375 86.1329 12.9713 86.5707 12.9204C87.0084 12.8644 87.3265 12.7754 87.5251 12.6532C87.7236 12.531 87.8228 12.3325 87.8228 12.0577V12.0042C87.8228 11.3374 87.6345 10.8208 87.2578 10.4543C86.8863 10.0878 86.3314 9.90456 85.5934 9.90456C84.8248 9.90456 84.219 10.0751 83.7762 10.4161C83.3385 10.7521 83.0356 11.1262 82.8676 11.5385L80.7221 11.0498C80.9767 10.3372 81.3482 9.76204 81.8369 9.32429C82.3306 8.88145 82.8982 8.56077 83.5395 8.36226C84.1809 8.15866 84.8553 8.05686 85.5628 8.05686C86.0311 8.05686 86.5274 8.11285 87.0517 8.22483C87.5811 8.33172 88.0748 8.53023 88.5329 8.82037C88.9961 9.1105 89.3753 9.52535 89.6705 10.0649C89.9658 10.5994 90.1134 11.2942 90.1134 12.1493V19.9371H87.8839V18.3338H87.7923C87.6447 18.629 87.4233 18.9191 87.128 19.2042C86.8328 19.4892 86.4536 19.7259 85.9904 19.9142C85.5272 20.1026 84.9724 20.1967 84.3259 20.1967ZM84.8222 18.3643C85.4534 18.3643 85.9929 18.2396 86.4409 17.9902C86.8939 17.7408 87.2375 17.415 87.4716 17.0129C87.7108 16.6057 87.8305 16.1705 87.8305 15.7073V14.1955C87.749 14.2769 87.5912 14.3533 87.3571 14.4246C87.128 14.4907 86.8659 14.5493 86.5707 14.6002C86.2754 14.646 85.9879 14.6892 85.7079 14.73C85.4279 14.7656 85.1938 14.7961 85.0055 14.8216C84.5626 14.8776 84.158 14.9717 83.7915 15.1041C83.4301 15.2364 83.1399 15.4273 82.9211 15.6767C82.7073 15.921 82.6004 16.2468 82.6004 16.654C82.6004 17.219 82.8091 17.6466 83.2265 17.9367C83.6439 18.2218 84.1758 18.3643 84.8222 18.3643ZM94.6845 4.30037V19.9371H92.4015V4.30037H94.6845ZM99.2861 4.30037V19.9371H97.0032V4.30037H99.2861ZM106.659 20.1738C105.504 20.1738 104.509 19.927 103.674 19.4332C102.844 18.9344 102.203 18.2345 101.75 17.3336C101.302 16.4275 101.078 15.3662 101.078 14.1497C101.078 12.9484 101.302 11.8897 101.75 10.9735C102.203 10.0573 102.834 9.3421 103.643 8.828C104.458 8.31391 105.41 8.05686 106.499 8.05686C107.161 8.05686 107.802 8.16629 108.423 8.38517C109.044 8.60404 109.601 8.94762 110.095 9.41591C110.589 9.8842 110.978 10.4925 111.263 11.2407C111.548 11.9839 111.691 12.8874 111.691 13.9512V14.7605H102.368V13.0502H109.454C109.454 12.4496 109.332 11.9177 109.087 11.4545C108.843 10.9862 108.499 10.6172 108.056 10.3474C107.619 10.0776 107.105 9.94274 106.514 9.94274C105.873 9.94274 105.313 10.1005 104.834 10.4161C104.361 10.7266 103.995 11.1338 103.735 11.6377C103.48 12.1366 103.353 12.6787 103.353 13.264V14.6002C103.353 15.384 103.491 16.0508 103.766 16.6006C104.045 17.1503 104.435 17.5702 104.934 17.8604C105.433 18.1454 106.015 18.2879 106.682 18.2879C107.115 18.2879 107.509 18.2269 107.866 18.1047C108.222 17.9774 108.53 17.7891 108.789 17.5397C109.049 17.2903 109.248 16.9823 109.385 16.6158L111.546 17.0052C111.373 17.6415 111.062 18.1989 110.614 18.6773C110.171 19.1507 109.614 19.5197 108.942 19.7844C108.275 20.044 107.514 20.1738 106.659 20.1738ZM118.946 8.20956V10.042H112.54V8.20956H118.946ZM114.258 5.39983H116.541V16.4937C116.541 16.9365 116.607 17.2699 116.739 17.4939C116.871 17.7128 117.042 17.8629 117.251 17.9444C117.464 18.0207 117.696 18.0589 117.945 18.0589C118.129 18.0589 118.289 18.0462 118.426 18.0207C118.564 17.9953 118.671 17.9749 118.747 17.9596L119.159 19.8455C119.027 19.8964 118.839 19.9473 118.594 19.9982C118.35 20.0542 118.045 20.0847 117.678 20.0898C117.078 20.1 116.518 19.9931 115.998 19.7692C115.479 19.5452 115.059 19.1991 114.739 18.7308C114.418 18.2625 114.258 17.6746 114.258 16.9671V5.39983Z" fill="white"/>
<path d="M1.54683 16.537C0.692537 16.0436 0.577114 15.3104 1.28902 14.8993L12.8902 8.19946C13.5309 7.82944 14.6736 7.88943 15.4425 8.33345C16.2113 8.77748 16.3152 9.43739 15.6745 9.80741L13.4187 11.1101C13.3836 11.1304 13.3469 11.1494 13.3089 11.1671L13.1287 11.2776C11.0107 12.5008 11.1995 14.5928 13.741 16.0606C16.2825 17.5283 19.8276 17.5926 21.9456 16.3695L23.9436 15.2156C23.9737 15.1982 24.0033 15.1806 24.0325 15.1628C24.0504 15.1519 24.0693 15.1415 24.0891 15.1316L24.4914 14.8993C25.1321 14.5292 26.2748 14.5892 27.0436 15.0333C27.8125 15.4773 27.9164 16.1372 27.2757 16.5072L15.6745 23.207C14.9626 23.6181 13.6929 23.5515 12.8386 23.0581L1.54683 16.537Z" fill="#7167E1" fill-opacity="0.16"/>
<path d="M1.54683 11.2014C0.692537 10.7081 0.577114 9.97482 1.28902 9.56368L12.8902 2.86388C13.5309 2.49387 14.6736 2.55386 15.4425 2.99788C16.2113 3.4419 16.3152 4.10182 15.6745 4.47184L13.4187 5.77458C13.3836 5.79486 13.3469 5.81386 13.3089 5.83157L13.1287 5.94207C11.0107 7.16519 11.1995 9.25724 13.741 10.725C16.2825 12.1927 19.8276 12.257 21.9456 11.0339L23.9436 9.88007C23.9737 9.86266 24.0033 9.84506 24.0325 9.82727C24.0504 9.8163 24.0693 9.8059 24.0891 9.79603L24.4914 9.56369C25.1321 9.19367 26.2748 9.25366 27.0436 9.69768C27.8125 10.1417 27.9164 10.8016 27.2757 11.1716L15.6745 17.8714C14.9626 18.2826 13.6929 18.2159 12.8386 17.7226L1.54683 11.2014Z" fill="url(#paint0_linear_201_437)"/>
<path d="M14.1484 18.124V23.4562C14.5353 23.4562 15.5025 23.4047 16.2763 22.9404C17.1361 22.4245 21.2915 20.0172 24.0618 18.4124C25.447 17.6099 26.4859 17.0081 26.5933 16.9436C26.6243 16.925 26.6594 16.9047 26.6976 16.8825C27.0572 16.6741 27.6895 16.3076 27.6895 15.783V10.6415C27.6599 10.8421 27.5234 11.0285 27.2756 11.1716L15.6745 17.8714C15.2813 18.0985 14.718 18.1798 14.1484 18.124Z" fill="#7166DF"/>
<path d="M0.905877 9.92859C0.682654 10.3306 0.908528 10.8329 1.54663 11.2014L12.8385 17.7226C13.2309 17.9492 13.711 18.0858 14.1844 18.1274C14.2027 18.1631 14.2126 18.2031 14.2125 18.2447C14.2104 18.7749 14.1978 19.5594 14.1842 20.3984C14.167 21.4667 14.1483 22.6233 14.1483 23.4563C13.6193 23.4563 13.3046 23.2955 13.0577 23.1694C13.0337 23.1572 13.0104 23.1453 12.9876 23.1339C12.7297 23.0049 2.2837 17.0081 1.50993 16.4923C0.791327 16.0132 0.795699 15.6454 0.799976 15.2855C0.800304 15.2578 0.800632 15.2302 0.800632 15.2027L0.800632 11.0758C0.800632 10.3211 0.800632 10.086 0.905877 9.92859Z" fill="url(#paint1_linear_201_437)"/>
<path opacity="0.4" d="M26.6056 16.9363C26.6014 16.9388 26.5973 16.9412 26.5933 16.9437C26.4859 17.0081 25.4484 17.6092 24.0646 18.4108L24.0618 18.4124L24.0613 18.4127C21.291 20.0176 17.136 22.4246 16.2763 22.9404C15.5025 23.4047 14.5353 23.4563 14.1484 23.4563C13.6194 23.4563 13.3047 23.2955 13.0578 23.1694C13.0338 23.1572 13.0105 23.1453 12.9877 23.1339C12.7526 23.0163 4.04887 18.0213 1.92748 16.7493L1.41791 17.0436C0.706006 17.4547 0.821429 18.1879 1.67572 18.6813L12.9675 25.2024C13.8218 25.6958 15.0915 25.7624 15.8034 25.3513L27.4046 18.6515C28.0453 18.2815 27.9414 17.6216 27.1725 17.1776C26.9992 17.0774 26.8069 16.9969 26.6056 16.9363Z" fill="url(#paint2_linear_201_437)"/>
<path opacity="0.1" fill-rule="evenodd" clip-rule="evenodd" d="M13.5868 25.4672C14.3577 25.7018 15.2494 25.6711 15.8034 25.3512L26.7121 19.0513C26.8747 19.107 27.03 19.1761 27.1725 19.2584C27.9414 19.7024 28.0453 20.3623 27.4046 20.7323L15.8034 27.4321C15.0915 27.8432 13.8218 27.7766 12.9675 27.2832L1.67572 20.7621C0.821428 20.2687 0.706005 19.5355 1.41791 19.1244L1.92748 18.8301C4.04886 20.1021 12.7526 25.0971 12.9877 25.2147C12.9921 25.2169 12.9966 25.2191 13.001 25.2214C13.0715 25.2606 13.1446 25.2971 13.2198 25.3307C13.3257 25.3804 13.4454 25.4294 13.5868 25.4672Z" fill="url(#paint3_linear_201_437)"/>
<path d="M13.959 10.8461C14.7086 10.4454 16.0831 9.64949 16.0831 9.39936V3.97276C16.0445 4.1615 15.9097 4.3362 15.6747 4.4719L13.4189 5.77464C13.3838 5.79493 13.3471 5.81392 13.3091 5.83163L13.1289 5.94214C11.0109 7.16526 11.1996 9.2573 13.7411 10.725C13.813 10.7665 13.8856 10.8069 13.959 10.8461Z" fill="#958BFF" fill-opacity="0.3"/>
<path d="M16.0831 3.73912V3.66052L16.0664 3.67249C16.0732 3.69473 16.0788 3.71695 16.0831 3.73912Z" fill="#958BFF" fill-opacity="0.3"/>
<circle cx="18.0174" cy="7.48175" r="2.48175" fill="url(#paint4_linear_201_437)"/>
<defs>
<linearGradient id="paint0_linear_201_437" x1="27.883" y1="10.3665" x2="7.51737" y2="-1.38505" gradientUnits="userSpaceOnUse">
<stop stop-color="#B0A9FF"/>
<stop offset="1" stop-color="#756AF2"/>
</linearGradient>
<linearGradient id="paint1_linear_201_437" x1="7.50589" y1="9.92859" x2="7.50589" y2="23.4563" gradientUnits="userSpaceOnUse">
<stop stop-color="#7167E1"/>
<stop offset="1" stop-color="#494299"/>
</linearGradient>
<linearGradient id="paint2_linear_201_437" x1="28.0119" y1="17.8464" x2="7.64627" y2="6.0948" gradientUnits="userSpaceOnUse">
<stop stop-color="#B6AFFF"/>
<stop offset="0.778695" stop-color="#7167E1"/>
</linearGradient>
<linearGradient id="paint3_linear_201_437" x1="28.0119" y1="19.9272" x2="7.64627" y2="8.17561" gradientUnits="userSpaceOnUse">
<stop stop-color="#B6AFFF"/>
<stop offset="0.778695" stop-color="#7167E1"/>
</linearGradient>
<linearGradient id="paint4_linear_201_437" x1="18.0174" y1="5" x2="18.0174" y2="9.96349" gradientUnits="userSpaceOnUse">
<stop stop-color="#7167E1"/>
<stop offset="0.635417" stop-color="#F67052"/>
<stop offset="0.984375" stop-color="#F67052"/>
</linearGradient>
</defs>
</svg>
