<svg width="153" height="28" viewBox="0 0 153 28" fill="none" xmlns="http://www.w3.org/2000/svg">
<path fill-rule="evenodd" clip-rule="evenodd" d="M6.18265 9.00917C6.17474 9.10632 6.16703 9.20368 6.16084 9.30095C6.1587 9.33463 6.15761 9.36859 6.15761 9.40281V17.8903C6.15761 18.7635 6.86545 19.4713 7.73862 19.4713H10.6636C12.3134 19.4713 13.1396 21.4659 11.973 22.6325L9.2925 25.313C8.76354 25.8419 7.96229 26.011 7.29967 25.6638C2.96053 23.3903 0 18.8434 0 13.605C0 6.09116 6.09116 0 13.605 0C13.9828 0 14.1544 0.449992 13.8873 0.717131L6.68908 7.91533C6.38394 8.22047 6.21513 8.61032 6.18265 9.00917ZM16.1997 7.8218C14.5499 7.8218 13.7237 5.82721 14.8903 4.66068L17.7439 1.80709C18.2657 1.28526 19.0533 1.11288 19.7125 1.44461C24.1592 3.68235 27.21 8.2874 27.21 13.605C27.21 21.1188 21.1188 27.21 13.605 27.21C13.1249 27.21 12.9123 26.6398 13.2517 26.3003L20.4109 19.1411C20.5042 19.0478 20.5848 18.9466 20.6526 18.8396C20.8514 18.5753 20.9692 18.2465 20.9692 17.8903V15.3287H15.3285C14.3626 15.3287 13.5796 14.5457 13.5796 13.5799C13.5796 12.614 14.3626 11.831 15.3285 11.831H20.9692V9.40281C20.9692 8.52964 20.2613 7.8218 19.3882 7.8218H16.1997ZM16.6658 13.5799C16.6658 14.148 16.2052 14.6086 15.6371 14.6086C15.0689 14.6086 14.6083 14.148 14.6083 13.5799C14.6083 13.0117 15.0689 12.5511 15.6371 12.5511C16.2052 12.5511 16.6658 13.0117 16.6658 13.5799Z" fill="url(#paint0_linear_402_8338)"/>
<path d="M38.4885 6.80084C38.4885 6.47176 38.7552 6.205 39.0843 6.205H45.1086C45.4377 6.205 45.7044 6.47176 45.7044 6.80084V16.7068C45.7044 18.3676 45.2033 19.5846 44.2011 20.3578C43.1989 21.1309 41.9103 21.5175 40.3354 21.5175C39.0245 21.5175 37.8463 21.3098 36.8008 20.8945C36.5838 20.8083 36.4482 20.5945 36.4482 20.3611V18.8017C36.4482 18.3361 36.9677 18.0393 37.4055 18.1981C38.0589 18.4352 38.7778 18.5538 39.5623 18.5538C41.5094 18.5538 42.483 17.8164 42.483 16.3417V9.70011C42.483 9.37104 42.2163 9.10427 41.8872 9.10427H39.0843C38.7552 9.10427 38.4885 8.83751 38.4885 8.50843V6.80084Z" fill="white"/>
<path d="M46.9051 16.084C46.9051 15.1534 47.0697 14.3301 47.399 13.6143C47.7283 12.8841 48.1579 12.3114 48.6876 11.8962C49.2317 11.481 49.7972 11.166 50.3842 10.9512C50.9856 10.7365 51.594 10.6291 52.2097 10.6291C53.2405 10.6291 54.1282 10.8224 54.8727 11.2089C55.6315 11.5955 56.1899 12.0966 56.5479 12.7123C56.9058 13.3136 57.1492 14.0008 57.278 14.774C57.3937 15.3867 57.3926 15.9994 57.2748 16.6121C57.2245 16.8739 56.9866 17.0504 56.7201 17.0504H50.6529C50.2722 17.0504 49.9845 17.4105 50.1742 17.7405C50.3938 18.1225 50.7216 18.4293 51.1574 18.6611C51.8303 19.0048 52.6249 19.1766 53.5412 19.1766C54.34 19.1766 55.0924 19.073 55.7984 18.8659C56.2111 18.7449 56.6552 19.0363 56.6552 19.4664V20.4996C56.6552 20.739 56.5127 20.9574 56.2869 21.0371C55.3393 21.3717 54.2022 21.5389 52.8754 21.5389C51.1574 21.5389 49.7328 21.0593 48.6017 20.1C47.4706 19.1408 46.9051 17.8021 46.9051 16.084ZM53.9738 15.1176C54.2684 15.1176 54.5296 14.8983 54.4836 14.6073C54.4345 14.2965 54.2993 13.9798 54.0781 13.6572C53.7345 13.1561 53.1475 12.9055 52.3171 12.9055C51.6585 12.9055 51.0929 13.106 50.6205 13.5069C50.296 13.7724 50.0795 14.1087 49.9711 14.516C49.8853 14.8387 50.1647 15.1176 50.4987 15.1176H53.9738Z" fill="white"/>
<path d="M59.2512 8.39324C59.2512 8.11755 59.4403 7.87786 59.7084 7.81374L61.4805 7.39C61.855 7.30043 62.2149 7.58438 62.2149 7.9695V10.3339C62.2149 10.663 62.4816 10.9297 62.8107 10.9297H64.8834C65.2125 10.9297 65.4792 11.1965 65.4792 11.5256V12.8466C65.4792 13.1757 65.2125 13.4424 64.8834 13.4424H62.8107C62.4816 13.4424 62.2149 13.7092 62.2149 14.0383V17.48C62.2149 18.5108 62.7661 19.0262 63.8685 19.0262C64.223 19.0262 64.5671 18.9931 64.9008 18.9267C65.3122 18.8449 65.7369 19.1354 65.7369 19.5547V20.6652C65.7369 20.9184 65.5775 21.1461 65.3343 21.2165C64.5911 21.4315 63.8018 21.5389 62.9665 21.5389C61.8784 21.5389 60.9836 21.2597 60.282 20.7014C59.5948 20.143 59.2512 19.2625 59.2512 18.0598V14.0383C59.2512 13.7092 58.9844 13.4424 58.6553 13.4424H58.1074C57.7784 13.4424 57.5116 13.1757 57.5116 12.8466V11.5256C57.5116 11.1965 57.7784 10.9297 58.1074 10.9297H58.6553C58.9844 10.9297 59.2512 10.663 59.2512 10.3339V8.39324Z" fill="white"/>
<path d="M87.7047 6.64941C87.7735 6.38755 88.0102 6.205 88.2809 6.205H90.4931C90.8942 6.205 91.1807 6.59327 91.0625 6.97652L86.7914 20.8181C86.7143 21.0679 86.4834 21.2383 86.222 21.2383H83.6081C83.3432 21.2383 83.1102 21.0634 83.0361 20.8091L80.748 12.9572C80.5812 12.385 79.7706 12.385 79.6039 12.9572L77.3158 20.8091C77.2417 21.0634 77.0086 21.2383 76.7438 21.2383H74.1299C73.8685 21.2383 73.6376 21.0679 73.5605 20.8181L69.2894 6.97652C69.1711 6.59327 69.4576 6.205 69.8587 6.205H72.0709C72.3417 6.205 72.5784 6.38755 72.6472 6.64941L74.9631 15.4632C75.1171 16.0493 75.946 16.058 76.1124 15.4753L78.6351 6.63729C78.7082 6.38142 78.942 6.205 79.2081 6.205H81.1438C81.4099 6.205 81.6437 6.38142 81.7168 6.63729L84.2395 15.4753C84.4059 16.0581 85.2347 16.0493 85.3887 15.4632L87.7047 6.64941Z" fill="white"/>
<path d="M100.104 18.5752C100.104 19.0334 100.348 19.2625 100.834 19.2625C101.114 19.2625 101.393 19.4648 101.393 19.744V20.7154C101.393 20.9651 101.238 21.1917 100.998 21.2585C100.582 21.3739 100.163 21.4316 99.7392 21.4316C98.9497 21.4316 98.3336 21.2281 97.8908 20.8211C97.6207 20.5728 97.2021 20.4799 96.89 20.6727C95.955 21.2502 94.9074 21.5389 93.7473 21.5389C92.7308 21.5389 91.8717 21.2597 91.1702 20.7014C90.483 20.1287 90.1393 19.3555 90.1393 18.3819C90.1393 17.5659 90.3827 16.8858 90.8695 16.3417C91.3563 15.7977 91.9219 15.4326 92.5661 15.2464C93.2104 15.046 93.912 14.9458 94.6708 14.9458C95.3887 14.9458 96.0858 15.013 96.7623 15.1474C96.9451 15.1837 97.1191 15.0463 97.1191 14.8599C97.1191 14.3301 96.9115 13.9078 96.4963 13.5928C96.0811 13.2778 95.4797 13.1203 94.6923 13.1203C93.7951 13.1203 92.854 13.2784 91.869 13.5947C91.4676 13.7235 91.0413 13.4349 91.0413 13.0134V11.7458C91.0413 11.4893 91.2051 11.2604 91.4507 11.1863C92.6806 10.8148 93.8756 10.6291 95.0359 10.6291C98.4148 10.6291 100.104 12.1825 100.104 15.2894V18.5752ZM95.358 16.7283C94.7424 16.7283 94.227 16.8428 93.8117 17.0719C93.3965 17.301 93.1889 17.6589 93.1889 18.1457C93.1889 18.518 93.3393 18.8258 93.6399 19.0692C93.9549 19.2983 94.3415 19.4128 94.7997 19.4128C95.6047 19.4128 96.3071 19.1904 96.9069 18.7456C97.0457 18.6426 97.1191 18.476 97.1191 18.3032V17.4347C97.1191 17.159 96.9303 16.9172 96.6595 16.8652C96.1842 16.7739 95.7504 16.7283 95.358 16.7283Z" fill="white"/>
<path d="M102.095 6.15655C102.095 5.82748 102.362 5.56071 102.691 5.56071H104.484C104.813 5.56071 105.08 5.82748 105.08 6.15655V20.6424C105.08 20.9715 104.813 21.2383 104.484 21.2383H102.691C102.362 21.2383 102.095 20.9715 102.095 20.6424V6.15655Z" fill="white"/>
<path d="M106.943 6.15655C106.943 5.82748 107.21 5.56071 107.539 5.56071H109.332C109.661 5.56071 109.928 5.82748 109.928 6.15655V20.6424C109.928 20.9715 109.661 21.2383 109.332 21.2383H107.539C107.21 21.2383 106.943 20.9715 106.943 20.6424V6.15655Z" fill="white"/>
<path d="M111.168 16.084C111.168 15.1534 111.333 14.3301 111.662 13.6143C111.991 12.8841 112.421 12.3114 112.951 11.8962C113.495 11.481 114.06 11.166 114.647 10.9512C115.249 10.7365 115.857 10.6291 116.473 10.6291C117.504 10.6291 118.391 10.8224 119.136 11.2089C119.895 11.5955 120.453 12.0966 120.811 12.7123C121.169 13.3136 121.412 14.0008 121.541 14.774C121.657 15.3867 121.656 15.9994 121.538 16.6121C121.488 16.8739 121.25 17.0504 120.983 17.0504H114.916C114.535 17.0504 114.248 17.4105 114.437 17.7405C114.657 18.1225 114.985 18.4293 115.42 18.6611C116.093 19.0048 116.888 19.1766 117.804 19.1766C118.603 19.1766 119.355 19.073 120.061 18.8659C120.474 18.7449 120.918 19.0363 120.918 19.4664V20.4996C120.918 20.739 120.776 20.9574 120.55 21.0371C119.602 21.3717 118.465 21.5389 117.138 21.5389C115.42 21.5389 113.996 21.0593 112.865 20.1C111.734 19.1408 111.168 17.8021 111.168 16.084ZM118.237 15.1176C118.531 15.1176 118.793 14.8983 118.747 14.6073C118.698 14.2965 118.562 13.9798 118.341 13.6572C117.998 13.1561 117.411 12.9055 116.58 12.9055C115.922 12.9055 115.356 13.106 114.883 13.5069C114.559 13.7724 114.343 14.1087 114.234 14.516C114.148 14.8387 114.428 15.1176 114.762 15.1176H118.237Z" fill="white"/>
<path d="M123.514 8.39324C123.514 8.11755 123.703 7.87786 123.971 7.81374L125.743 7.38999C126.118 7.30043 126.478 7.58438 126.478 7.9695V10.3339C126.478 10.663 126.745 10.9297 127.074 10.9297H129.146C129.476 10.9297 129.742 11.1965 129.742 11.5256V12.8466C129.742 13.1757 129.476 13.4424 129.146 13.4424H127.074C126.745 13.4424 126.478 13.7092 126.478 14.0383V17.48C126.478 18.5108 127.029 19.0262 128.132 19.0262C128.486 19.0262 128.83 18.9931 129.164 18.9267C129.575 18.8449 130 19.1354 130 19.5547V20.6652C130 20.9184 129.841 21.1461 129.597 21.2165C128.854 21.4315 128.065 21.5389 127.23 21.5389C126.141 21.5389 125.247 21.2597 124.545 20.7014C123.858 20.143 123.514 19.2625 123.514 18.0598V14.0383C123.514 13.7092 123.247 13.4424 122.918 13.4424H122.37C122.041 13.4424 121.775 13.1757 121.775 12.8466V11.5256C121.775 11.1965 122.041 10.9297 122.37 10.9297H122.918C123.247 10.9297 123.514 10.663 123.514 10.3339V8.39324Z" fill="white"/>
<path d="M131.74 1H132.54V3.92C133.02 3.36 133.64 3.08 134.4 3.08C135.087 3.08 135.657 3.32 136.11 3.8C136.57 4.28 136.8 4.88 136.8 5.6C136.8 6.32 136.57 6.92 136.11 7.4C135.657 7.88 135.087 8.12 134.4 8.12C133.647 8.12 133 7.81333 132.46 7.2V8H131.74V1ZM135.51 6.89C135.837 6.56333 136 6.13333 136 5.6C136 5.06667 135.837 4.63667 135.51 4.31C135.19 3.98333 134.79 3.82 134.31 3.82C133.903 3.82 133.543 3.93333 133.23 4.16C132.917 4.38667 132.687 4.66667 132.54 5V6.2C132.687 6.53333 132.917 6.81333 133.23 7.04C133.543 7.26667 133.903 7.38 134.31 7.38C134.79 7.38 135.19 7.21667 135.51 6.89Z" fill="white"/>
<path d="M137.621 5.6C137.621 4.81333 137.861 4.19667 138.341 3.75C138.828 3.30333 139.384 3.08 140.011 3.08C140.598 3.08 141.081 3.22667 141.461 3.52C141.848 3.81333 142.101 4.17667 142.221 4.61C142.341 5.03667 142.348 5.48333 142.241 5.95H138.421C138.468 6.42333 138.678 6.78 139.051 7.02C139.424 7.26 139.874 7.38 140.401 7.38C140.988 7.38 141.514 7.25 141.981 6.99V7.77C141.534 8.00333 140.968 8.12 140.281 8.12C139.521 8.12 138.888 7.90333 138.381 7.47C137.874 7.03667 137.621 6.41333 137.621 5.6ZM141.531 5.25C141.551 5.11 141.541 4.96333 141.501 4.81C141.461 4.65667 141.388 4.50333 141.281 4.35C141.181 4.19667 141.024 4.07 140.811 3.97C140.598 3.87 140.348 3.82 140.061 3.82C139.628 3.82 139.251 3.94667 138.931 4.2C138.618 4.45333 138.448 4.80333 138.421 5.25H141.531Z" fill="white"/>
<path d="M143.701 1.71L144.491 1.51V3.2H146.411V3.94H144.491V6.42C144.491 6.77333 144.571 7.02 144.731 7.16C144.897 7.3 145.161 7.37 145.521 7.37C145.867 7.37 146.221 7.29667 146.581 7.15V7.89C146.174 8.03667 145.744 8.11 145.291 8.11C144.804 8.11 144.417 7.98 144.131 7.72C143.844 7.45333 143.701 7.06667 143.701 6.56V3.94H142.801V3.2H143.701V1.71Z" fill="white"/>
<path d="M151.382 7C151.382 7.24667 151.506 7.37 151.752 7.37C151.859 7.37 151.982 7.34667 152.122 7.3V7.95C151.922 8.02333 151.722 8.06 151.522 8.06C151.062 8.06 150.769 7.86667 150.642 7.48C150.129 7.90667 149.506 8.12 148.772 8.12C148.306 8.12 147.906 7.99667 147.572 7.75C147.246 7.49667 147.082 7.13333 147.082 6.66C147.082 6.09333 147.292 5.68333 147.712 5.43C148.139 5.17 148.652 5.04 149.252 5.04C149.692 5.04 150.136 5.09 150.582 5.19V5.02C150.582 4.65333 150.462 4.36333 150.222 4.15C149.982 3.93 149.646 3.82 149.212 3.82C148.606 3.82 148.022 3.94 147.462 4.18V3.4C148.089 3.18667 148.699 3.08 149.292 3.08C149.946 3.08 150.456 3.25667 150.822 3.61C151.196 3.95667 151.382 4.46 151.382 5.12V7ZM147.902 6.62C147.902 6.88667 148.002 7.09 148.202 7.23C148.409 7.36333 148.656 7.43 148.942 7.43C149.602 7.43 150.149 7.19667 150.582 6.73V5.85C150.129 5.75667 149.722 5.71 149.362 5.71C148.956 5.71 148.609 5.78333 148.322 5.93C148.042 6.07 147.902 6.3 147.902 6.62Z" fill="white"/>
<defs>
<linearGradient id="paint0_linear_402_8338" x1="20.2585" y1="0.496531" x2="1.39029" y2="19.3648" gradientUnits="userSpaceOnUse">
<stop stop-color="#F67052"/>
<stop offset="1" stop-color="#7167E1"/>
</linearGradient>
</defs>
</svg>
