<svg width="20" height="21" viewBox="0 0 20 21" fill="none" xmlns="http://www.w3.org/2000/svg">
<g clip-path="url(#clip0_201_387)">
<path d="M8.22405 11.4675C8.1663 11.4675 6.89581 11.4675 6.31831 11.4675C6.01031 11.4675 5.91406 11.352 5.91406 11.0632C5.91406 10.2932 5.91406 9.50398 5.91406 8.73398C5.91406 8.42598 6.02956 8.32973 6.31831 8.32973H8.22405C8.22405 8.27199 8.22405 7.15549 8.22405 6.63574C8.22405 5.86575 8.3588 5.13425 8.7438 4.46051C9.14804 3.76751 9.72554 3.30551 10.457 3.03602C10.9383 2.86277 11.4195 2.78577 11.9393 2.78577H13.8258C14.0953 2.78577 14.2108 2.90127 14.2108 3.17076V5.36525C14.2108 5.63475 14.0953 5.75025 13.8258 5.75025C13.306 5.75025 12.7863 5.75025 12.2665 5.7695C11.7468 5.7695 11.4773 6.01975 11.4773 6.55874C11.458 7.13624 11.4773 7.69449 11.4773 8.29123H13.7103C14.0183 8.29123 14.1338 8.40673 14.1338 8.71473V11.044C14.1338 11.352 14.0375 11.4482 13.7103 11.4482C13.0173 11.4482 11.535 11.4482 11.4773 11.4482V17.7237C11.4773 18.0509 11.381 18.1664 11.0345 18.1664C10.226 18.1664 9.43679 18.1664 8.6283 18.1664C8.33955 18.1664 8.22405 18.0509 8.22405 17.7622C8.22405 15.7409 8.22405 11.5252 8.22405 11.4675Z" fill="#F3F5FC"/>
</g>
<defs>
<clipPath id="clip0_201_387">
<rect width="19.2499" height="19.2499" fill="white" transform="translate(0.447266 0.841309)"/>
</clipPath>
</defs>
</svg>
