<svg width="20" height="21" viewBox="0 0 20 21" fill="none" xmlns="http://www.w3.org/2000/svg">
<g clip-path="url(#clip0_201_392)">
<path d="M20.0001 4.2913C19.2681 4.61237 18.4882 4.82519 17.6751 4.92853C18.5116 4.42908 19.15 3.64423 19.4502 2.69823C18.6703 3.16324 17.8091 3.49169 16.8914 3.67499C16.1509 2.88645 15.0954 2.39807 13.944 2.39807C11.71 2.39807 9.91147 4.21134 9.91147 6.43425C9.91147 6.7541 9.93853 7.06164 10.005 7.35442C6.65029 7.19081 3.68189 5.58298 1.68779 3.13371C1.33965 3.73772 1.13544 4.42908 1.13544 5.17333C1.13544 6.5708 1.85509 7.80958 2.9278 8.52677C2.2795 8.51447 1.6435 8.32625 1.10469 8.02978C1.10469 8.04208 1.10469 8.05807 1.10469 8.07407C1.10469 10.035 2.50339 11.6637 4.33757 12.0389C4.00912 12.1287 3.65114 12.1718 3.27963 12.1718C3.02129 12.1718 2.7605 12.157 2.51569 12.1029C3.03852 13.7009 4.5221 14.8757 6.28616 14.9138C4.91329 15.9877 3.17014 16.6348 1.28307 16.6348C0.95215 16.6348 0.634766 16.62 0.317383 16.5795C2.10482 17.7321 4.22317 18.3903 6.50759 18.3903C13.9329 18.3903 17.9924 12.2394 17.9924 6.90787C17.9924 6.72949 17.9863 6.55727 17.9777 6.38628C18.7785 5.81794 19.4514 5.10813 20.0001 4.2913Z" fill="white"/>
</g>
<defs>
<clipPath id="clip0_201_392">
<rect width="19.6827" height="19.6827" fill="white" transform="translate(0.317383 0.552856)"/>
</clipPath>
</defs>
</svg>
