<svg width="20" height="21" viewBox="0 0 20 21" fill="none" xmlns="http://www.w3.org/2000/svg">
<g clip-path="url(#clip0_201_385)">
<path d="M18.8533 5.0874C18.6314 4.21951 17.9812 3.53537 17.1567 3.30168C15.6503 2.86792 9.62473 2.86792 9.62473 2.86792C9.62473 2.86792 3.59937 2.86792 2.09301 3.28523C1.28431 3.51868 0.618244 4.21964 0.396419 5.0874C0 6.67256 0 9.95998 0 9.95998C0 9.95998 0 13.264 0.396419 14.8326C0.618479 15.7003 1.26845 16.3845 2.09312 16.6182C3.61524 17.052 9.62496 17.052 9.62496 17.052C9.62496 17.052 15.6503 17.052 17.1567 16.6347C17.9814 16.4012 18.6314 15.717 18.8535 14.8493C19.2498 13.264 19.2498 9.97668 19.2498 9.97668C19.2498 9.97668 19.2657 6.67256 18.8533 5.0874ZM7.70632 12.997V6.92295L12.7169 9.95998L7.70632 12.997Z" fill="#F3F5FC"/>
</g>
<defs>
<clipPath id="clip0_201_385">
<rect width="19.2499" height="19.2499" fill="white" transform="translate(0 0.841309)"/>
</clipPath>
</defs>
</svg>
