<svg width="110" height="110" viewBox="0 0 110 110" fill="none" xmlns="http://www.w3.org/2000/svg">
<g filter="url(#filter0_f_202_4050)">
<circle cx="47.5" cy="47.5" r="17.5" fill="#7167E1"/>
</g>
<g filter="url(#filter1_b_202_4050)">
<rect x="30" y="30" width="80" height="80" rx="20" fill="white" fill-opacity="0.03"/>
<rect x="30.5" y="30.5" width="79" height="79" rx="19.5" stroke="white" stroke-opacity="0.2"/>
</g>
<path opacity="0.5" d="M85.4615 73.4619C85.1029 73.103 84.6667 72.9235 84.1541 72.9235H75.2307L72.6154 75.5388C71.8717 76.2566 71 76.6157 70 76.6157C69.0002 76.6157 68.1282 76.2571 67.3846 75.5388L64.7885 72.9235H55.8461C55.3334 72.9235 54.8975 73.1032 54.5385 73.4619C54.1794 73.8208 54 74.2567 54 74.7698V80.9234C54 81.4363 54.1794 81.8722 54.5385 82.2311C54.8975 82.59 55.3333 82.7693 55.8461 82.7693H84.1541C84.6667 82.7693 85.1029 82.59 85.4615 82.2311C85.8207 81.8722 86 81.4363 86 80.9234V74.7698C86 74.2567 85.8207 73.8208 85.4615 73.4619ZM78.2503 79.9427C78.0064 80.1863 77.7179 80.308 77.3845 80.308C77.0512 80.308 76.763 80.1863 76.5192 79.9427C76.2758 79.699 76.154 79.4107 76.154 79.0775C76.154 78.7442 76.2758 78.4554 76.5192 78.2122C76.763 77.9683 77.0512 77.8464 77.3845 77.8464C77.7179 77.8464 78.0064 77.9683 78.2503 78.2122C78.4937 78.4553 78.6155 78.7442 78.6155 79.0775C78.6155 79.4106 78.4937 79.699 78.2503 79.9427ZM83.1731 79.9427C82.9297 80.1863 82.6411 80.308 82.3077 80.308C81.9744 80.308 81.686 80.1863 81.4423 79.9427C81.199 79.699 81.0773 79.4107 81.0773 79.0775C81.0773 78.7442 81.199 78.4554 81.4423 78.2122C81.686 77.9683 81.9743 77.8464 82.3077 77.8464C82.641 77.8464 82.9296 77.9683 83.1731 78.2122C83.4167 78.4553 83.5386 78.7442 83.5386 79.0775C83.5386 79.4106 83.4169 79.699 83.1731 79.9427Z" fill="white"/>
<path d="M69.1347 73.7887C69.3656 74.0321 69.654 74.1539 70 74.1539C70.3463 74.1539 70.6344 74.0321 70.8653 73.7887L79.4808 65.1731C79.8782 64.8014 79.9681 64.3526 79.75 63.8269C79.5325 63.3271 79.1541 63.0771 78.6155 63.0768H73.6923V54.4614C73.6923 54.1281 73.5703 53.8396 73.3271 53.5961C73.0833 53.3524 72.7949 53.2306 72.4618 53.2306H67.5382C67.2051 53.2306 66.9166 53.3524 66.6729 53.5961C66.4294 53.8396 66.3075 54.1281 66.3075 54.4614V63.0769H61.3845C60.8457 63.0769 60.4677 63.3271 60.2498 63.827C60.0319 64.3525 60.1216 64.8015 60.5191 65.1732L69.1347 73.7887Z" fill="white"/>
<defs>
<filter id="filter0_f_202_4050" x="0" y="0" width="95" height="95" filterUnits="userSpaceOnUse" color-interpolation-filters="sRGB">
<feFlood flood-opacity="0" result="BackgroundImageFix"/>
<feBlend mode="normal" in="SourceGraphic" in2="BackgroundImageFix" result="shape"/>
<feGaussianBlur stdDeviation="15" result="effect1_foregroundBlur_202_4050"/>
</filter>
<filter id="filter1_b_202_4050" x="-10" y="-10" width="160" height="160" filterUnits="userSpaceOnUse" color-interpolation-filters="sRGB">
<feFlood flood-opacity="0" result="BackgroundImageFix"/>
<feGaussianBlur in="BackgroundImage" stdDeviation="20"/>
<feComposite in2="SourceAlpha" operator="in" result="effect1_backgroundBlur_202_4050"/>
<feBlend mode="normal" in="SourceGraphic" in2="effect1_backgroundBlur_202_4050" result="shape"/>
</filter>
</defs>
</svg>
