<svg width="160" height="160" viewBox="0 0 160 160" fill="none" xmlns="http://www.w3.org/2000/svg">
<g clip-path="url(#clip0_425_11184)">
<g filter="url(#filter0_f_425_11184)">
<path d="M71 92C82.598 92 92 82.598 92 71C92 59.402 82.598 50 71 50C59.402 50 50 59.402 50 71C50 82.598 59.402 92 71 92Z" fill="#F77052"/>
</g>
<path d="M140 50H70C58.9543 50 50 58.9543 50 70V140C50 151.046 58.9543 160 70 160H140C151.046 160 160 151.046 160 140V70C160 58.9543 151.046 50 140 50Z" fill="white" fill-opacity="0.03"/>
<path d="M140 50.5H70C59.2304 50.5 50.5 59.2304 50.5 70V140C50.5 150.77 59.2304 159.5 70 159.5H140C150.77 159.5 159.5 150.77 159.5 140V70C159.5 59.2304 150.77 50.5 140 50.5Z" stroke="white" stroke-opacity="0.2"/>
<path fill-rule="evenodd" clip-rule="evenodd" d="M125.549 86.1094L125.549 86.1093C125.524 86.081 125.498 86.0531 125.471 86.0256C125.045 85.5776 124.501 85.2584 123.902 85.1042C123.303 84.9501 122.672 84.9672 122.082 85.1537L86.3628 96.2211C85.7012 96.3967 85.1139 96.7813 84.6884 97.3176C84.2629 97.8539 84.022 98.5133 84.0014 99.1975C83.9809 99.8818 84.1818 100.554 84.5744 101.115C84.9669 101.676 85.5301 102.095 86.18 102.31L102.38 107.739C102.439 107.761 102.493 107.795 102.539 107.838C102.585 107.882 102.622 107.934 102.648 107.992L102.739 108.229L102.739 108.229L108.61 123.461C108.851 124.082 109.277 124.615 109.83 124.987C110.383 125.359 111.037 125.553 111.704 125.542H111.788C112.466 125.54 113.126 125.324 113.674 124.925C114.222 124.526 114.63 123.964 114.84 123.32L126.203 89.2038C126.381 88.6575 126.407 88.0731 126.278 87.5132C126.158 86.9905 125.907 86.5076 125.549 86.1094Z" fill="white" fill-opacity="0.5"/>
<path fill-rule="evenodd" clip-rule="evenodd" d="M125.402 85.9544C124.986 85.5437 124.469 85.2501 123.902 85.1042C123.303 84.9501 122.672 84.9672 122.082 85.1537L86.3628 96.2211C85.7012 96.3967 85.1139 96.7813 84.6884 97.3176C84.2629 97.8539 84.022 98.5133 84.0014 99.1975C83.9809 99.8818 84.1818 100.554 84.5744 101.115C84.9669 101.676 85.5301 102.095 86.18 102.31L102.38 107.739C102.439 107.761 102.493 107.795 102.539 107.838C102.557 107.855 102.573 107.872 102.587 107.891L125.402 85.9544Z" fill="white"/>
</g>
<defs>
<filter id="filter0_f_425_11184" x="0" y="0" width="142" height="142" filterUnits="userSpaceOnUse" color-interpolation-filters="sRGB">
<feFlood flood-opacity="0" result="BackgroundImageFix"/>
<feBlend mode="normal" in="SourceGraphic" in2="BackgroundImageFix" result="shape"/>
<feGaussianBlur stdDeviation="25" result="effect1_foregroundBlur_425_11184"/>
</filter>
<clipPath id="clip0_425_11184">
<rect width="160" height="160" fill="white"/>
</clipPath>
</defs>
</svg>
