<svg width="160" height="160" viewBox="0 0 160 160" fill="none" xmlns="http://www.w3.org/2000/svg">
<g filter="url(#filter0_f_503_8308)">
<circle cx="71" cy="71" r="21" fill="#7167E1"/>
</g>
<g filter="url(#filter1_b_503_8308)">
<rect x="50" y="50" width="110" height="110" rx="20" fill="white" fill-opacity="0.03"/>
<rect x="50.5" y="50.5" width="109" height="109" rx="19.5" stroke="white" stroke-opacity="0.2"/>
</g>
<path opacity="0.5" d="M112.522 90.9305C116.093 90.9305 118.987 88.0359 118.987 84.4652C118.987 80.8946 116.093 78 112.522 78C108.952 78 106.057 80.8946 106.057 84.4652C106.057 88.0359 108.952 90.9305 112.522 90.9305Z" fill="white"/>
<path opacity="0.3" d="M97.8234 85.3418C94.2527 85.3418 91.3581 88.2363 91.3581 91.807C91.3581 92.0814 91.3772 92.3511 91.4104 92.6164H104.236C104.269 92.3512 104.289 92.0814 104.289 91.807C104.289 88.2364 101.394 85.3418 97.8234 85.3418Z" fill="white"/>
<path d="M110.561 103.399H124.477V98.0513C124.477 96.7368 123.412 95.6714 122.097 95.6714H84.5462C83.2317 95.6714 82.1663 96.737 82.1663 98.0513V125.62C82.1663 126.935 83.2317 128 84.5462 128H122.097C123.412 128 124.477 126.934 124.477 125.62V120.273H110.561C107.694 120.273 105.361 117.94 105.361 115.073V108.598C105.361 105.731 107.693 103.399 110.561 103.399Z" fill="white"/>
<path d="M125.884 106.649H110.561C109.484 106.649 108.611 107.522 108.611 108.598V115.073C108.611 116.15 109.484 117.023 110.561 117.023H125.884C126.961 117.023 127.834 116.15 127.834 115.073V108.598C127.834 107.522 126.961 106.649 125.884 106.649ZM113.786 114.124C112.522 114.124 111.497 113.1 111.497 111.836C111.497 110.572 112.522 109.547 113.786 109.547C115.05 109.547 116.075 110.572 116.075 111.836C116.075 113.1 115.05 114.124 113.786 114.124Z" fill="white"/>
<defs>
<filter id="filter0_f_503_8308" x="0" y="0" width="142" height="142" filterUnits="userSpaceOnUse" color-interpolation-filters="sRGB">
<feFlood flood-opacity="0" result="BackgroundImageFix"/>
<feBlend mode="normal" in="SourceGraphic" in2="BackgroundImageFix" result="shape"/>
<feGaussianBlur stdDeviation="25" result="effect1_foregroundBlur_503_8308"/>
</filter>
<filter id="filter1_b_503_8308" x="10" y="10" width="190" height="190" filterUnits="userSpaceOnUse" color-interpolation-filters="sRGB">
<feFlood flood-opacity="0" result="BackgroundImageFix"/>
<feGaussianBlur in="BackgroundImage" stdDeviation="20"/>
<feComposite in2="SourceAlpha" operator="in" result="effect1_backgroundBlur_503_8308"/>
<feBlend mode="normal" in="SourceGraphic" in2="effect1_backgroundBlur_503_8308" result="shape"/>
</filter>
</defs>
</svg>
