<svg width="34" height="30" viewBox="0 0 34 30" fill="none" xmlns="http://www.w3.org/2000/svg">
<path d="M-0.000488281 3.70692C-0.000488281 6.16879 4.24388 7.45691 8.437 7.45691C12.6301 7.45691 16.8745 6.16879 16.8745 3.70692C16.8745 -1.21676 -0.000488281 -1.21676 -0.000488281 3.70692Z" fill="#F77052"/>
<path d="M8.437 9.33154C5.40269 9.33154 -0.000488281 8.4426 -0.000488281 5.58154V7.45654C-0.000488281 9.91278 4.237 11.2065 8.437 11.2065C12.637 11.2065 16.8745 9.91278 16.8745 7.45654V5.58154C16.8745 8.43991 11.4968 9.33154 8.437 9.33154Z" fill="#F77052"/>
<path d="M8.437 16.8315C4.237 16.8315 -0.000488281 15.5378 -0.000488281 13.0815V14.9565C-0.000488281 17.4128 4.237 18.7065 8.437 18.7065C12.637 18.7065 16.8745 17.4128 16.8745 14.9565V13.0815C16.8745 15.5378 12.637 16.8315 8.437 16.8315Z" fill="#F77052"/>
<path d="M8.437 20.5815C4.237 20.5815 -0.000488281 19.2878 -0.000488281 16.8315V18.7065C-0.000488281 21.1628 4.237 22.4565 8.437 22.4565C12.637 22.4565 16.8745 21.1628 16.8745 18.7065V16.8315C16.8745 19.2878 12.637 20.5815 8.437 20.5815Z" fill="#F77052"/>
<path d="M8.437 24.3315C4.237 24.3315 -0.000488281 23.0378 -0.000488281 20.5815V22.4565C-0.000488281 24.9128 4.237 26.2065 8.437 26.2065C12.637 26.2065 16.8745 24.9128 16.8745 22.4565V20.5815C16.8745 23.0378 12.637 24.3315 8.437 24.3315Z" fill="#F77052"/>
<path d="M8.437 28.0815C4.237 28.0815 -0.000488281 26.7878 -0.000488281 24.3315V26.2065C-0.000488281 28.6628 4.237 29.9565 8.437 29.9565C12.637 29.9565 16.8745 28.6628 16.8745 26.2065V24.3315C16.8745 26.7878 12.637 28.0815 8.437 28.0815Z" fill="#F77052"/>
<path d="M8.437 13.0815C4.237 13.0815 -0.000488281 11.7878 -0.000488281 9.33154V11.2065C-0.000488281 14.0676 5.40269 14.9565 8.437 14.9565C12.0744 14.9565 15.7307 13.9815 16.6495 12.144C16.7994 11.8628 16.8745 11.544 16.8745 11.2065V9.33154C16.8745 11.7878 12.637 13.0815 8.437 13.0815Z" fill="#F77052"/>
<path d="M24.9996 27.7932C23.2738 27.7932 21.6206 27.5629 20.1787 27.135C20.1787 27.7932 20.1787 27.9854 20.1787 29.0287C21.9996 29.4854 22.7072 29.6689 24.8205 29.6689C29.0205 29.6689 33.383 28.3752 33.383 25.9189V24.0439C33.3829 26.5002 29.1996 27.7932 24.9996 27.7932Z" fill="#F77052"/>
<path d="M24.8203 20.2944C23.1719 20.2944 21.5324 20.0841 20.1328 19.6939C20.1328 20.7475 20.1328 20.5211 20.1328 21.5747C21.5329 21.964 23.1746 22.1694 24.8203 22.1694C29.0203 22.1694 33.3828 20.8757 33.3828 18.4194V16.5444C33.3828 19.4054 27.8546 20.2944 24.8203 20.2944Z" fill="#F77052"/>
<path d="M24.8203 24.0439C23.1669 24.0439 21.5359 23.821 20.1328 23.4268C20.1328 24.1216 20.1328 23.7008 20.1328 25.3112C21.5304 25.7058 23.1678 25.9189 24.8203 25.9189C27.8801 25.9189 33.3828 25.0272 33.3828 22.1689V20.2939C33.3828 22.7502 29.0203 24.0439 24.8203 24.0439Z" fill="#F77052"/>
<path d="M20.1328 11.5573V17.7974C21.5331 18.1956 23.1646 18.4191 24.8203 18.4191C29.0134 18.4191 33.3828 17.1309 33.3828 14.6691C33.3828 11.2413 25.0982 10.21 20.1328 11.5573Z" fill="#F77052"/>
</svg>
