<svg width="39" height="40" viewBox="0 0 39 40" fill="none" xmlns="http://www.w3.org/2000/svg">
<g clip-path="url(#clip0_235_219)">
<path d="M26.483 27.3243V16.6058C26.483 15.9747 25.9716 15.4632 25.3405 15.4632H25.3149V13.3292C25.3149 10.1226 22.706 7.51367 19.4993 7.51367C16.2927 7.51367 13.6838 10.1226 13.6838 13.3292V15.4632H13.6582C13.0274 15.4632 12.5156 15.9747 12.5156 16.6058V27.3243C12.5156 27.9554 13.0274 28.4669 13.6582 28.4669H25.3405C25.9716 28.4669 26.483 27.9554 26.483 27.3243ZM18.3568 21.7902C18.3568 21.1591 18.8682 20.6477 19.4993 20.6477C20.1304 20.6477 20.6419 21.1591 20.6419 21.7902V23.2131C20.6419 23.8439 20.1304 24.3557 19.4993 24.3557C18.8682 24.3557 18.3568 23.8439 18.3568 23.2131V21.7902ZM15.9689 13.3292C15.9689 11.3827 17.5528 9.79883 19.4993 9.79883C21.4459 9.79883 23.0297 11.3827 23.0297 13.3292V15.4632H15.9689V13.3292Z" fill="url(#paint0_linear_235_219)"/>
<path d="M33.2881 5.72556C29.6051 2.04253 24.7081 0.0141602 19.4995 0.0141602C14.291 0.0141602 9.39394 2.04253 5.71091 5.72556C2.02789 9.40859 -0.000488281 14.3056 -0.000488281 19.5142C-0.000488281 25.7838 2.9717 31.5939 8.00172 35.2651L7.63485 35.3874C7.03619 35.5867 6.71246 36.2336 6.91181 36.8326C7.0713 37.3113 7.51732 37.6142 7.99577 37.6142C8.11539 37.6142 8.23708 37.5955 8.35699 37.5556L10.8656 36.7201C11.3238 36.5674 11.6366 36.1431 11.647 35.6602L11.7026 33.0165C11.716 32.3857 11.2152 31.8635 10.5844 31.8501C9.95482 31.8359 9.43114 32.3375 9.41775 32.9686L9.40763 33.4605C4.93194 30.2208 2.28467 25.0723 2.28467 19.5142C2.28467 10.0218 10.0072 2.29932 19.4995 2.29932C28.9918 2.29932 36.7144 10.0218 36.7144 19.5142C36.7144 29.0065 28.9918 36.729 19.4995 36.729C18.8684 36.729 18.3569 37.2405 18.3569 37.8716C18.3569 38.5027 18.8684 39.0142 19.4995 39.0142C24.7081 39.0142 29.6051 36.9858 33.2881 33.3028C36.9711 29.6197 38.9995 24.7227 38.9995 19.5142C38.9995 14.3056 36.9711 9.40859 33.2881 5.72556Z" fill="url(#paint1_linear_235_219)"/>
</g>
<defs>
<linearGradient id="paint0_linear_235_219" x1="19.4993" y1="7.51367" x2="19.4993" y2="28.4669" gradientUnits="userSpaceOnUse">
<stop stop-color="#7167E1"/>
<stop offset="1" stop-color="#494299"/>
</linearGradient>
<linearGradient id="paint1_linear_235_219" x1="19.4995" y1="0.0141602" x2="19.4995" y2="39.0142" gradientUnits="userSpaceOnUse">
<stop stop-color="#7167E1"/>
<stop offset="1" stop-color="#494299"/>
</linearGradient>
<clipPath id="clip0_235_219">
<rect width="39" height="39" fill="white" transform="translate(-0.000488281 0.0141602)"/>
</clipPath>
</defs>
</svg>
