<svg width="32" height="33" viewBox="0 0 32 33" fill="none" xmlns="http://www.w3.org/2000/svg">
<g clip-path="url(#clip0_31_924)">
<path d="M31.6395 23.2452L25.6395 18.2452C25.3415 17.9952 24.9255 17.9452 24.5755 18.1072C24.2235 18.2732 23.9995 18.6252 23.9995 19.0132V22.0132H22.3255C20.9375 22.0132 19.6695 21.3092 18.9335 20.1332L12.4575 9.77318C10.9875 7.41918 8.45151 6.01318 5.67351 6.01318H-0.000488281V10.0132H5.67351C7.06151 10.0132 8.32951 10.7172 9.06551 11.8932L15.5415 22.2532C17.0135 24.6072 19.5495 26.0132 22.3255 26.0132H23.9995V29.0132C23.9995 29.4012 24.2235 29.7532 24.5755 29.9192C24.7095 29.9812 24.8555 30.0132 24.9995 30.0132C25.2295 30.0132 25.4575 29.9352 25.6395 29.7812L31.6395 24.7812C31.8695 24.5912 31.9995 24.3092 31.9995 24.0132C31.9995 23.7172 31.8695 23.4352 31.6395 23.2452Z" fill="#9D5597"/>
<path d="M31.6397 7.24565L25.6397 2.24565C25.3417 1.99765 24.9257 1.94565 24.5757 2.10965C24.2237 2.27165 23.9997 2.62565 23.9997 3.01365V6.01365H22.3257C19.5477 6.01365 17.0117 7.41965 15.5417 9.77365L15.1797 10.3536L17.5377 14.1276L18.9337 11.8936C19.6697 10.7176 20.9377 10.0137 22.3257 10.0137H23.9997V13.0136C23.9997 13.4016 24.2237 13.7556 24.5757 13.9196C24.7097 13.9816 24.8557 14.0136 24.9997 14.0136C25.2297 14.0136 25.4577 13.9337 25.6397 13.7816L31.6397 8.78165C31.8697 8.59165 31.9997 8.30965 31.9997 8.01365C31.9997 7.71765 31.8697 7.43565 31.6397 7.24565Z" fill="#9D5597"/>
<path d="M10.4615 17.8994L9.06751 20.1334C8.33151 21.3094 7.06151 22.0134 5.67351 22.0134H-0.000488281V26.0134H5.67351C8.44951 26.0134 10.9855 24.6074 12.4575 22.2534L12.8195 21.6734L10.4615 17.8994Z" fill="#9D5597"/>
</g>
<defs>
<clipPath id="clip0_31_924">
<rect width="32" height="32" fill="white" transform="translate(-0.000488281 0.0141602)"/>
</clipPath>
</defs>
</svg>
